# xmcd CD database file
#
# Track frame offsets:
#	182
#	18985
#	36222
#	51677
#	68035
#	83137
#	97535
#	112867
#	127207
#	140585
#	158952
#	172492
#
# Disc length: 2514 seconds
#
# Revision: 2
# Processed by: cddbd v1.5.1PL0 Copyright (c) Steve Scherf et al.
# Submitted via: CDex 1.50Beta7
#
DISCID=a609d00c
DTITLE=Wayne Toups and Zydecajun - Fish Out Of Water
DYEAR=1991
DGENRE=Cajun
TTITLE0=Fish Out Of Water
TTITLE1=Please Explain
TTITLE2=Chisel Without The Stone
TTITLE3=Rockin' Flames
TTITLE4=Late In Life
TTITLE5=Sweet Stoup Shuffle
TTITLE6=One Heart Beating
TTITLE7=Ooh La La
TTITLE8=Night At The Wheel
TTITLE9=True Love (Don't Leave Me Blue)
TTITLE10=Lovin' When They Can
TTITLE11=Waiting For You
EXTD=YEAR: 1991
EXTT0=
EXTT1=
EXTT2=
EXTT3=
EXTT4=
EXTT5=
EXTT6=
EXTT7=
EXTT8=
EXTT9=
EXTT10=
EXTT11=
PLAYORDER=
